# xmcd CD database file
#
# Track frame offsets:
#	150
#	26046
#	48636
#	57763
#	70192
#	92055
#	110654
#	131892
#	151071
#	171870
#	186163
#	210286
#
# Disc length: 3122 seconds
#
# Revision: 0
# Processed by: cddbd v1.5.2PL0 Copyright (c) Steve Scherf et al.
# Submitted via: CDex 1.72
#
DISCID=a50c300c
DTITLE=di Ghebt, Rita [CDN-03-The Standards Sessions 2-jazz) X - The Standards Sessions 2
DYEAR=2003
DGENRE=Jazz
TTITLE0=Good Morinin Heartache
TTITLE1=Since I Fell For You
TTITLE2=I Cried For You
TTITLE3=You Hit The Spot
TTITLE4=I've Got A Crush On You
TTITLE5=Nowhere
TTITLE6=Mood Indigo
TTITLE7=Ne Me Quitte Pas
TTITLE8=Just For A Thrill
TTITLE9=Nicely Situated
TTITLE10=Do I Move You
TTITLE11=Just Like a Woman
EXTD=YEAR: 2003
EXTT0=
EXTT1=
EXTT2=
EXTT3=
EXTT4=
EXTT5=
EXTT6=
EXTT7=
EXTT8=
EXTT9=
EXTT10=
EXTT11=
PLAYORDER=
